<?xml version="1.0" encoding="iso-8859-1"?>
<!-- Uploaded to: SVG Repo, www.svgrepo.com, Generator: SVG Repo Mixer Tools -->
<svg fill="#1089ff" height="800px" width="800px" version="1.1" id="Layer_1" xmlns="http://www.w3.org/2000/svg" xmlns:xlink="http://www.w3.org/1999/xlink" 
	 viewBox="0 0 512 512" xml:space="preserve">
<g>
	<g>
		<circle cx="175.035" cy="198.178" r="18.286"/>
	</g>
</g>
<g>
	<g>
		<circle cx="336.882" cy="198.178" r="18.286"/>
	</g>
</g>
<g>
	<g>
		<path d="M456.488,182.376c-3.472,0-6.701,0.335-9.861,0.944v-7.739c0-41.384-34.014-75.341-75.398-75.341H144.232
			c-41.384,0-74.727,33.957-74.727,75.341v8.503c-4.214-1.112-9.141-1.709-13.87-1.709C24.858,182.375,0,207.413,0,238.19
			c0,18.508,8.407,34.932,23.155,45.092v50.639c0,31.303,24.945,57.06,56.248,57.06h0.636v4.978c0,8.726,7.075,15.801,15.801,15.801
			c8.727,0,15.801-7.075,15.801-15.801v-4.978H398.17v4.978c0,8.726,7.075,15.801,15.801,15.801s15.801-7.075,15.801-15.801v-4.978
			h2.743c31.303,0,56.248-25.757,56.248-57.06v-50.639C503.512,273.121,512,256.698,512,238.19
			C512,207.413,487.265,182.376,456.488,182.376z M101.108,175.581c0-23.959,19.166-43.739,43.125-43.739h226.997
			c23.959-0.001,43.796,19.779,43.796,43.738v25.641c-9.481,9.854-14.748,22.798-14.748,36.969v4.26H111.642v-4.26
			c0-12.134-4.214-23.367-10.534-32.534V175.581z M111.642,274.052h288.635v17.908H111.642V274.052z M456.403,262.403
			c-8.726,0-15.779,7.075-15.779,15.801c0,8.726,6.825,15.801,15.552,15.801c0.415,0,0.987-0.022,0.987-0.032v39.948
			c-0.001,13.877-10.769,25.458-24.647,25.458H79.403c-13.878,0-24.646-11.581-24.646-25.458v-39.948
			c0,0.009,0.561,0.032,0.975,0.032c8.727,0,15.671-7.075,15.671-15.801c0-8.727-7.14-15.801-15.867-15.801
			c-13.351,0-24.244-10.862-24.244-24.212c0-13.35,11.022-24.212,24.373-24.212s24.374,10.862,24.374,24.212v69.736
			c0,8.727,6.72,15.637,15.447,15.637h320.947c8.726,0,15.447-6.91,15.447-15.637v-69.736c0-13.351,11.039-24.212,24.39-24.212
			c13.351,0,24.3,10.862,24.3,24.212C480.57,251.541,469.754,262.403,456.403,262.403z"/>
	</g>
</g>
</svg>